HIERARCHY
ROOT Hips
{
	OFFSET 0.000000 0.000000 0.000000
	CHANNELS 6 Xposition Yposition Zposition Zrotation Yrotation Xrotation 
	JOINT LHipJoint
	{
		OFFSET 0.000000 0.000000 0.000000
		CHANNELS 3 Zrotation Yrotation Xrotation
		JOINT LeftUpLeg
		{
			OFFSET 1.363060 -1.794630 0.839290
			CHANNELS 3 Zrotation Yrotation Xrotation
			JOINT LeftLeg
			{
				OFFSET 2.448110 -6.726130 0.000000
				CHANNELS 3 Zrotation Yrotation Xrotation
				JOINT LeftFoot
				{
					OFFSET 2.562200 -7.039590 0.000000
					CHANNELS 3 Zrotation Yrotation Xrotation
					JOINT LeftToeBase
					{
						OFFSET 0.157640 -0.433110 2.322550
						CHANNELS 3 Zrotation Yrotation Xrotation
						End Site
						{
							OFFSET 0.000000 0.000000 0.000000
						}
					}
				}
			}
		}
	}
	JOINT RHipJoint
	{
		OFFSET 0.000000 0.000000 0.000000
		CHANNELS 3 Zrotation Yrotation Xrotation
		JOINT RightUpLeg
		{
			OFFSET -1.305520 -1.794630 0.839290
			CHANNELS 3 Zrotation Yrotation Xrotation
			JOINT RightLeg
			{
				OFFSET -2.542530 -6.985550 0.000000
				CHANNELS 3 Zrotation Yrotation Xrotation
				JOINT RightFoot
				{
					OFFSET -2.568260 -7.056230 0.000000
					CHANNELS 3 Zrotation Yrotation Xrotation
					JOINT RightToeBase
					{
						OFFSET -0.164730 -0.452590 2.363150
						CHANNELS 3 Zrotation Yrotation Xrotation
						End Site
						{
							OFFSET 0.000000 0.000000 0.000000
						}
					}
				}
			}
		}
	}
}
MOTION
Frames: 19
Frame Time: 0.008333
5.029188 16.671451 1.096593 24.403892 84.965227 41.823860 -8.682352 -0.199813 2.193425 -13.834269 -2.113982 -45.727905 -2.444070 0.392995 20.064096 0.783628 5.695451 5.091777 1.856200 -0.000000 -24.645200 11.711271 -3.683099 -1.356407 1.882786 -6.610812 -6.009188 0.112198 -3.154158 39.479929 -0.310581 5.108295 17.056148 2.284900 -0.000000 -77.629100
5.188473 16.709064 1.089878 26.268628 84.974806 43.700155 -8.527763 -0.123919 2.159759 -14.140478 -2.295888 -44.900804 -2.487183 0.328332 20.051912 0.809997 5.797097 4.234789 1.787600 0.000000 -24.448600 11.979008 -3.556849 -1.354688 1.560434 -6.754411 -7.574366 -0.122983 -3.281803 42.214998 -0.577372 3.971630 19.129584 2.070600 -0.000000 -74.645200
5.343968 16.748597 1.081330 27.514907 84.930056 44.931494 -8.406481 -0.049163 2.116188 -14.414853 -2.377643 -44.001170 -2.533762 0.259055 19.887539 0.831564 5.865332 3.472317 1.714700 -0.000000 -24.248100 12.193619 -3.407392 -1.352251 1.323146 -6.813572 -9.101253 -0.327862 -3.391781 44.864722 -0.849820 2.557561 20.838260 1.629000 0.000000 -71.571500
5.496040 16.789900 1.071401 28.303693 84.850630 45.672731 -8.315453 0.022814 2.059534 -14.667811 -2.361245 -43.027341 -2.582118 0.186044 19.580483 0.846445 5.906629 2.838318 1.645500 0.000000 -24.041400 12.363177 -3.246452 -1.351641 1.156613 -6.808707 -10.575180 -0.504062 -3.493069 47.403325 -1.119040 0.898156 22.102448 0.972100 -0.000000 -68.677400
5.645256 16.832643 1.059905 28.664542 84.755722 45.955370 -8.260078 0.088898 1.989325 -14.889323 -2.240478 -42.002173 -2.629081 0.112853 19.163994 0.852377 5.911637 2.337663 1.580500 -0.000000 -23.832600 12.485203 -3.085380 -1.353435 1.072298 -6.749093 -11.990735 -0.656549 -3.591332 49.811993 -1.377922 -0.960066 22.865856 0.139100 0.000001 -66.114901
5.792098 16.876519 1.047026 28.713891 84.659761 45.895365 -8.236741 0.149395 1.906529 -15.079456 -2.025689 -40.932506 -2.673402 0.040637 18.657964 0.849045 5.882254 1.964450 1.521100 -0.000000 -23.628300 12.566679 -2.931074 -1.359525 1.062091 -6.652733 -13.344063 -0.791278 -3.690863 52.077250 -1.620473 -2.937224 23.097141 -0.798000 -0.000000 -63.907899
5.937052 16.921121 1.032774 28.528618 84.575146 45.571965 -8.243172 0.204591 1.814203 -15.233542 -1.730543 -39.830575 -2.713920 -0.029338 18.086420 0.836890 5.817607 1.696987 1.466000 -0.000000 -23.435501 12.611916 -2.788253 -1.370840 1.121921 -6.534607 -14.635571 -0.913468 -3.793123 54.187309 -1.841716 -4.938364 22.795231 -1.750200 -0.000000 -61.989800
6.080501 16.965925 1.017124 28.166209 84.511797 45.048053 -8.276728 0.254592 1.716322 -15.345750 -1.373976 -38.710118 -2.749773 -0.096161 17.473237 0.817169 5.717314 1.504152 1.412000 -0.000000 -23.258700 12.624421 -2.659075 -1.388107 1.248370 -6.407745 -15.869401 -1.026358 -3.897341 56.130841 -2.037387 -6.862239 21.992681 -2.625800 -0.000001 -60.253300
6.222769 17.010467 1.000091 27.693540 84.475750 44.392055 -8.332833 0.300718 1.617331 -15.414748 -0.978290 -37.574251 -2.780839 -0.160004 16.832979 0.791746 5.584697 1.354431 1.356600 -0.000000 -23.101300 12.609300 -2.543753 -1.411303 1.430396 -6.284543 -17.045398 -1.130822 -4.001278 57.895591 -2.203642 -8.611133 20.754595 -3.345400 -0.000000 -58.565700
6.364127 17.054129 0.981555 27.122669 84.473163 43.625379 -8.409549 0.342670 1.522380 -15.434720 -0.566251 -36.439404 -2.806471 -0.220389 16.186837 0.762436 5.420124 1.214290 1.296601 0.000000 -22.965200 12.567807 -2.441368 -1.439210 1.666036 -6.171262 -18.172298 -1.225559 -4.101084 59.471200 -2.337557 -10.109088 19.176538 -3.858900 0.000000 -56.840000
6.504744 17.096441 0.961458 26.475442 84.506082 42.775942 -8.503327 0.381004 1.435463 -15.405465 -0.158946 -35.312542 -2.826711 -0.277637 15.545740 0.731073 5.227598 1.058373 1.230400 0.000000 -22.851800 12.502914 -2.349575 -1.470570 1.946804 -6.073704 -19.255473 -1.307972 -4.192842 60.848741 -2.437041 -11.303943 17.373649 -4.149200 0.000001 -55.010700
6.644686 17.136921 0.939881 25.762863 84.574362 41.859297 -8.610899 0.416576 1.360076 -15.329060 0.226487 -34.199413 -2.841647 -0.332018 14.917645 0.699116 5.011835 0.870656 1.157800 0.000001 -22.762701 12.417495 -2.265734 -1.503409 2.264178 -5.996017 -20.300281 -1.375211 -4.272878 62.022333 -2.501375 -12.173333 15.469365 -4.232000 0.000000 -53.062200
6.784001 17.175182 0.916945 24.990417 84.675797 40.886948 -8.728632 0.449895 1.297488 -15.210780 0.577703 -33.105895 -2.851725 -0.383726 14.307461 0.667529 4.777389 0.643764 1.079900 0.000000 -22.699200 12.314780 -2.186388 -1.536691 2.609330 -5.940901 -21.313408 -1.425096 -4.338504 62.989775 -2.531590 -12.722992 13.583139 -4.148001 0.000000 -51.039900
6.922891 17.210980 0.892972 24.174422 84.806672 39.881768 -8.852254 0.483203 1.252028 -15.058943 0.882611 -32.040149 -2.857555 -0.433417 13.714500 0.637299 4.533139 0.382708 0.999701 -0.000000 -22.660000 12.199027 -2.108848 -1.566059 2.972886 -5.909684 -22.307136 -1.456795 -4.387548 63.752339 -2.530521 -12.981303 11.816929 -3.949400 -0.000000 -49.028300
7.060442 17.244092 0.868042 23.256927 84.958963 38.765264 -8.984253 0.514013 1.206865 -14.878017 1.175652 -30.975444 -2.859638 -0.478798 13.141783 0.605749 4.263136 0.092157 0.915100 -0.000000 -22.656600 12.069861 -2.030736 -1.600851 3.348833 -5.903690 -23.247651 -1.470416 -4.420793 64.308213 -2.502221 -12.992538 10.243815 -3.687800 -0.000000 -47.152300
7.197573 17.274447 0.842802 22.295073 85.129238 37.619639 -9.116140 0.547040 1.175694 -14.681873 1.429089 -29.945510 -2.859094 -0.521702 12.587359 0.575218 3.989239 -0.209717 0.833000 -0.000001 -22.676800 11.934861 -1.950037 -1.629358 3.728980 -5.919838 -24.178533 -1.467655 -4.437442 64.671224 -2.451961 -12.805387 8.902879 -3.404000 0.000000 -45.528800
7.333858 17.302103 0.817584 21.261812 85.309239 36.405482 -9.248375 0.582022 1.148441 -14.477075 1.669466 -28.935888 -2.856731 -0.560777 12.050413 0.543881 3.703625 -0.509168 0.753300 0.000001 -22.723500 11.795361 -1.865938 -1.655585 4.108399 -5.956203 -25.081558 -1.449954 -4.439253 64.846224 -2.384755 -12.468855 7.796662 -3.124700 0.000000 -44.248000
7.469280 17.327108 0.792826 20.160188 85.492396 35.124009 -9.378855 0.619882 1.121326 -14.271341 1.909638 -27.945547 -2.853495 -0.595611 11.530803 0.511179 3.406688 -0.793011 0.677500 0.000001 -22.793700 11.654391 -1.778017 -1.679273 4.481996 -6.008884 -25.956379 -1.418535 -4.428216 64.843028 -2.305025 -12.024807 6.893244 -2.861500 0.000000 -43.347600
7.603946 17.349565 0.769024 19.017673 85.673194 33.804174 -9.504343 0.661384 1.092722 -14.072511 2.154934 -26.977084 -2.850322 -0.626364 11.028904 0.477299 3.102901 -1.052279 0.607100 0.000000 -22.880100 11.515467 -1.686265 -1.699369 4.843765 -6.073737 -26.807561 -1.373962 -4.406854 64.674122 -2.216055 -11.504917 6.135615 -2.615201 0.000000 -42.810400
